<?xml version="1.0" encoding="utf-8"?>
<!-- Generator: Adobe Illustrator 26.0.0, SVG Export Plug-In . SVG Version: 6.00 Build 0)  -->
<svg version="1.1" id="Camada_1" xmlns="http://www.w3.org/2000/svg" xmlns:xlink="http://www.w3.org/1999/xlink" x="0px" y="0px"
	 viewBox="0 0 32 32" style="enable-background:new 0 0 32 32;" xml:space="preserve">
<style type="text/css">
	.st0{fill:#F2F2F2;}
</style>
<path d="M24.1,32H7.9C3.6,32,0,28.4,0,24.1V7.9C0,3.6,3.6,0,7.9,0h16.2C28.4,0,32,3.6,32,7.9v16.2C32,28.4,28.4,32,24.1,32z"/>
<g>
	<g>
		<path class="st0" d="M23.3,4H8.7C6.1,4,4,6.1,4,8.7v14.7C4,25.9,6.1,28,8.7,28h14.7c2.6,0,4.7-2.1,4.7-4.7V8.7
			C28,6.1,25.9,4,23.3,4z M25.3,14.2L23,19.8c-0.5,1.5-1.7,2.6-3.1,3.1l-5.7,2.4c-0.7,0.3-1.5,0.5-2.2,0.5c-3.8,0-6.9-3.9-5.3-7.9
			l2.3-5.6c0.6-1.5,1.8-2.7,3.2-3.2l5.7-2.3c0.7-0.3,1.5-0.5,2.2-0.5C23.8,6.3,26.8,10.2,25.3,14.2z"/>
	</g>
</g>
</svg>
